<svg xmlns="http://www.w3.org/2000/svg" width="35.201" height="33.918" viewBox="0 0 35.201 33.918">
  <g id="Group_839" data-name="Group 839" transform="translate(-163.306 -209.627)">
    <g id="Group_837" data-name="Group 837" transform="translate(174.862 204.411) rotate(29)">
      <path id="Path_405" data-name="Path 405" d="M0,10.09A23.9,23.9,0,0,1,6.075,4.438c1.768-1.056,3.812-1.2,5.751-1.849a10.577,10.577,0,0,0,2.006-.75,1.972,1.972,0,0,0,.427-.7A2.364,2.364,0,0,0,14.32.28a1.271,1.271,0,0,1,.757-.272c.315.059.506.508.506.508a4.238,4.238,0,0,1,0,1.442,2.073,2.073,0,0,1-.6.989s.328-.094-1.638.67S9.158,4.716,7.121,6a18.641,18.641,0,0,0-5.25,5.23Z" transform="translate(11.387)" fill="#7f8693"/>
      <path id="Path_406" data-name="Path 406" d="M0,1.143A23.916,23.916,0,0,0,6.075,6.795c1.767,1.054,3.812,1.2,5.751,1.847a10.461,10.461,0,0,1,2.006.751,1.955,1.955,0,0,1,.426.7,2.359,2.359,0,0,1,.061.863,1.274,1.274,0,0,0,.757.272c.316-.059.505-.508.505-.508a4.231,4.231,0,0,0,0-1.443,2.081,2.081,0,0,0-.6-.99s.328.1-1.639-.668S9.157,6.516,7.121,5.23A18.655,18.655,0,0,1,1.871,0Z" transform="translate(10.005 13.5) rotate(59)" fill="#7f8693"/>
      <path id="Path_407" data-name="Path 407" d="M5.367,7.937,0,0,9.585.754,6.344,2.769l23.929,13.8-.582,1.3L5.583,4.081Z" transform="translate(0 5.963)" fill="#7f8693"/>
      <path id="Path_408" data-name="Path 408" d="M0,.176,1.873,1.223,6.06,1.058,2.821,0Z" transform="translate(24.794 17.991)" fill="#7f8693"/>
      <path id="Path_409" data-name="Path 409" d="M0,.315,1.787,1.329,6.022,1.15,4.185,0Z" transform="translate(28.175 19.847)" fill="#7f8693"/>
      <path id="Path_410" data-name="Path 410" d="M0,0,1.863,1.066,3.791,4.688,1.117,2.371Z" transform="translate(23.096 21.333)" fill="#7f8693"/>
      <path id="Path_411" data-name="Path 411" d="M0,0,1.971,3.891,3.814,4.936,1.971,1.041Z" transform="translate(26.332 23.098)" fill="#7f8693"/>
      <path id="Path_412" data-name="Path 412" d="M0,10.965,6.385,0l.35.205L.18,11.635Z" transform="translate(10.097 18.231)" fill="#7f8693"/>
      <path id="Path_413" data-name="Path 413" d="M6.734.672.351,11.635,0,11.431,6.555,0Z" transform="translate(18.882 2.527)" fill="#7f8693"/>
    </g>
  </g>
</svg>
