<svg xmlns="http://www.w3.org/2000/svg" width="26.218" height="39.999" viewBox="0 0 26.218 39.999">
  <g id="Group_844" data-name="Group 844" transform="translate(-863.356 -291.385)">
    <path id="Path_418" data-name="Path 418" d="M-3956.644,9862.681a33.69,33.69,0,0,0,5.376-4.563,33.771,33.771,0,0,0,4.115-5.732,20.31,20.31,0,0,0,4.406,5.193,15.3,15.3,0,0,0,5.7,2.533s-3.825,3.262-4.862,5.675a3.511,3.511,0,0,0,.716,3.979h-5.1a3.9,3.9,0,0,0,.712-1.956c-.111-.738-1.157-1-1.157-1l4.829-5.577a6.272,6.272,0,0,1-2.269-.6c-1.078-.55-1.4-3.487-1.4-3.487l-5.688,4.6a5.872,5.872,0,0,0,1.951,1.788c.907.32,1.875.613,1.875.613l-1.875,2.664a29.31,29.31,0,0,0-3.417-2.3A34.5,34.5,0,0,0-3956.644,9862.681Z" transform="translate(4820 -9561)" fill="#7f8693"/>
    <path id="Path_419" data-name="Path 419" d="M-3829.064,10076.685h5.489a5.37,5.37,0,0,0-.25,3c.448,1.085,10.555,17.084,10.555,17.084l-1.623,1.587-10.777-16.585a2.123,2.123,0,0,0,0-2.4A12.527,12.527,0,0,0-3829.064,10076.685Z" transform="translate(4702.845 -9766.974)" fill="#7f8693"/>
  </g>
</svg>
