<svg xmlns="http://www.w3.org/2000/svg" width="36.241" height="40" viewBox="0 0 36.241 40">
  <g id="Group_843" data-name="Group 843" transform="translate(-810.648 -97.886)">
    <path id="Subtraction_3" data-name="Subtraction 3" d="M18.121,40h0c-.005,0-.567-.29-1.459-.839a38.964,38.964,0,0,1-3.549-2.477,36.337,36.337,0,0,1-4.4-4.053,27.968,27.968,0,0,1-4.007-5.569A33.311,33.311,0,0,1,2.06,20.28,54.852,54.852,0,0,1,.655,13.56C.339,11.43.178,9.588.1,8.417.014,7.173,0,6.4,0,6.366c.008,0,.969.091,2.384.091a24.754,24.754,0,0,0,7.839-1.133,17.168,17.168,0,0,0,3.145-1.5,22.721,22.721,0,0,0,2.5-1.756A21.639,21.639,0,0,0,18.12,0h0a21.415,21.415,0,0,0,2.25,2.065,22.711,22.711,0,0,0,2.5,1.756,17.167,17.167,0,0,0,3.145,1.5,24.754,24.754,0,0,0,7.839,1.133c1.411,0,2.375-.091,2.384-.092a.031.031,0,0,1,0,.005c0,.139-.02.889-.1,2.046s-.241,3.013-.556,5.143a54.877,54.877,0,0,1-1.406,6.72,33.3,33.3,0,0,1-2.647,6.781,27.964,27.964,0,0,1-4.007,5.569,36.333,36.333,0,0,1-4.4,4.053,38.961,38.961,0,0,1-3.549,2.477c-.892.549-1.453.836-1.459.839ZM3.758,9.538a47.965,47.965,0,0,0,.519,5.7,43.51,43.51,0,0,0,1.114,5.327,26.4,26.4,0,0,0,2.1,5.375,22.162,22.162,0,0,0,3.176,4.414,28.791,28.791,0,0,0,3.486,3.213,30.9,30.9,0,0,0,2.813,1.963c.708.436,1.152.663,1.156.665s.443-.226,1.156-.665a30.94,30.94,0,0,0,2.813-1.963,28.793,28.793,0,0,0,3.487-3.213,22.165,22.165,0,0,0,3.176-4.414,26.4,26.4,0,0,0,2.1-5.375,43.484,43.484,0,0,0,1.114-5.327,47.956,47.956,0,0,0,.519-5.7h0c-.081.007-.822.073-1.888.073a19.622,19.622,0,0,1-6.214-.9,13.631,13.631,0,0,1-2.493-1.191A18.015,18.015,0,0,1,19.9,6.129a16.932,16.932,0,0,1-1.783-1.637h0a17.081,17.081,0,0,1-1.782,1.636,18.014,18.014,0,0,1-1.983,1.391,13.625,13.625,0,0,1-2.493,1.191,19.622,19.622,0,0,1-6.214.9c-1.114,0-1.881-.072-1.889-.073Z" transform="translate(810.648 97.886)" fill="#7f8693"/>
    <g id="Group_842" data-name="Group 842" transform="translate(821.416 108.652)">
      <path id="Path_416" data-name="Path 416" d="M-3921.175,9731.249l-1.4,1.4v3.569h-4.446l-1.5,1.5,1.5,1.5h4.446v9.086l1.4,1.405Z" transform="translate(3928.528 -9731.249)" fill="#7f8693"/>
      <path id="Path_417" data-name="Path 417" d="M-3928.528,9731.249l1.4,1.4v3.569h4.446l1.5,1.5-1.5,1.5h-4.446v9.086l-1.4,1.405Z" transform="translate(3935.88 -9731.249)" fill="#7f8693"/>
    </g>
  </g>
</svg>
