<svg xmlns="http://www.w3.org/2000/svg" width="40" height="40" viewBox="0 0 40 40">
  <g id="Group_851" data-name="Group 851" transform="translate(-293 -654)">
    <rect id="Rectangle_906" data-name="Rectangle 906" width="2.764" height="22.612" rx="1.382" transform="translate(324.306 672.617) rotate(90)" fill="#7f8693"/>
    <path id="Subtraction_2" data-name="Subtraction 2" d="M20,40A20.005,20.005,0,0,1,12.215,1.572a20.005,20.005,0,0,1,15.57,36.857A19.882,19.882,0,0,1,20,40ZM20,1.54a18.466,18.466,0,0,0-7.186,35.471A18.466,18.466,0,0,0,27.187,2.991,18.356,18.356,0,0,0,20,1.54Z" transform="translate(293 654)" fill="none"/>
    <rect id="Rectangle_907" data-name="Rectangle 907" width="2.764" height="22.612" rx="1.382" transform="translate(311.618 662.692)" fill="#7f8693"/>
  </g>
</svg>
